<?xml version="1.0" encoding="UTF-8" standalone="no"?>
<!-- Created with Inkscape (http://www.inkscape.org/) -->

<svg
   xmlns:dc="http://purl.org/dc/elements/1.1/"
   xmlns:cc="http://creativecommons.org/ns#"
   xmlns:rdf="http://www.w3.org/1999/02/22-rdf-syntax-ns#"
   xmlns:svg="http://www.w3.org/2000/svg"
   xmlns="http://www.w3.org/2000/svg"
   xmlns:sodipodi="http://sodipodi.sourceforge.net/DTD/sodipodi-0.dtd"
   xmlns:inkscape="http://www.inkscape.org/namespaces/inkscape"
   width="60.099953mm"
   height="60.099949mm"
   viewBox="0 0 60.099953 60.099949"
   version="1.1"
   id="svg2267"
   inkscape:version="0.92.3 (2405546, 2018-03-11)"
   sodipodi:docname="stator end.svg">
  <defs
     id="defs2261" />
  <sodipodi:namedview
     id="base"
     pagecolor="#ffffff"
     bordercolor="#666666"
     borderopacity="1.0"
     inkscape:pageopacity="0.0"
     inkscape:pageshadow="2"
     inkscape:zoom="2.8"
     inkscape:cx="142.20781"
     inkscape:cy="105.72242"
     inkscape:document-units="mm"
     inkscape:current-layer="layer1"
     showgrid="false"
     inkscape:window-width="1680"
     inkscape:window-height="987"
     inkscape:window-x="-8"
     inkscape:window-y="-8"
     inkscape:window-maximized="1"
     inkscape:snap-bbox="true"
     inkscape:snap-bbox-midpoints="true"
     inkscape:snap-center="true"
     inkscape:measure-start="167.961,333.725"
     inkscape:measure-end="82.8586,382.858"
     inkscape:snap-bbox-edge-midpoints="false"
     inkscape:bbox-nodes="false"
     fit-margin-top="0"
     fit-margin-left="0"
     fit-margin-right="0"
     fit-margin-bottom="0" />
  <metadata
     id="metadata2264">
    <rdf:RDF>
      <cc:Work
         rdf:about="">
        <dc:format>image/svg+xml</dc:format>
        <dc:type
           rdf:resource="http://purl.org/dc/dcmitype/StillImage" />
        <dc:title></dc:title>
      </cc:Work>
    </rdf:RDF>
  </metadata>
  <g
     inkscape:label="Layer 1"
     inkscape:groupmode="layer"
     id="layer1"
     transform="translate(8.127357,-165.65241)">
    <path
       style="fill:none;fill-opacity:0.50196078;stroke:#000000;stroke-width:0.37795275;stroke-miterlimit:4;stroke-dasharray:none;stroke-dashoffset:0;stroke-opacity:1"
       d="m 67.796875,642.66602 c -21.032674,3.25942 -40.198971,13.21312 -54.855469,28.04687 -0.139413,0.14131 -0.277469,0.28365 -0.416015,0.42578 -1.024037,1.04906 -2.02365,2.12421 -3.0019535,3.22071 -0.1846136,0.20712 -0.3737855,0.41046 -0.5566406,0.61914 -0.4870415,0.55529 -0.9663431,1.11857 -1.4414063,1.68554 -0.3070685,0.36675 -0.6084374,0.73818 -0.9101562,1.10938 -0.7012841,0.86224 -1.3872471,1.73713 -2.0605469,2.625 -0.2654974,0.3502 -0.5296047,0.70137 -0.7910156,1.05468 -0.5428105,0.73962 -1.0786396,1.48307 -1.5996094,2.23633 -0.1707226,0.24856 -0.3418202,0.49681 -0.5117187,0.7461 -0.3141337,0.46095 -0.6110557,0.93562 -0.9179688,1.40234 -0.4143585,0.63414 -0.84109436,1.26146 -1.24023438,1.9043 -0.0228636,0.0364 -0.045525,0.0729 -0.0683594,0.10937 -9.01336632,14.55913 -14.11617422,31.30228 -14.69726522,48.5 -3.3e-4,0.01 3.26e-4,0.0196 0,0.0293 -0.04787,1.42925 -0.06375,2.86039 -0.04883,4.29492 0.01494,1.4365 0.06202,2.87661 0.140624,4.31641 4.26e-4,0.008 -4.27e-4,0.0156 0,0.0234 0.07895,1.43984 0.190663,2.87919 0.333985,4.32032 0.565097,5.68218 1.635814,11.36646 3.228515,16.99218 0.05344,0.18771 0.107549,0.37509 0.16211,0.5625 0.231439,0.79934 0.473823,1.59783 0.726562,2.39454 0.20208,0.63354 0.405985,1.26677 0.621094,1.89648 0.1272593,0.37474 0.2605367,0.74901 0.3925782,1.12305 0.3360633,0.94589 0.6771988,1.88989 1.0429688,2.82617 0.032505,-0.0153 0.066998,-0.0259 0.099609,-0.041 l 76.318362,-44.1328 z m 30.152344,0.0195 c -0.0077,0.0911 -0.02781,0.18057 -0.03711,0.27148 l 0.05859,87.97461 76.441411,44.19336 c 8.01973,-20.6795 8.73098,-43.23806 2.41406,-64.06055 -0.0514,-0.16928 -0.10194,-0.33892 -0.15429,-0.50781 -0.23033,-0.7447 -0.47042,-1.48656 -0.71876,-2.22656 -0.31308,-0.92883 -0.63226,-1.85503 -0.97265,-2.77149 -0.004,-0.0118 -0.009,-0.0234 -0.0137,-0.0351 -0.1445,-0.3909 -0.29962,-0.7786 -0.44922,-1.16797 -0.38915,-1.00834 -0.78928,-2.01158 -1.21094,-3.00391 -0.048,-0.11372 -0.0941,-0.22822 -0.14258,-0.34179 -13.0208,-30.28752 -40.88992,-52.99022 -75.214845,-58.32422 z M 82.880859,757.12109 6.4746094,801.17383 c -0.00535,0.004 -0.010266,0.008 -0.015625,0.0117 -0.023631,0.0182 -0.049363,0.0354 -0.074219,0.0527 12.5738536,15.63911 29.4752076,26.85416 48.2734376,32.51172 0.381708,0.11443 0.761558,0.23594 1.144531,0.3457 0.240914,0.0677 0.481597,0.13618 0.722657,0.20313 0.738381,0.20637 1.482596,0.39497 2.226562,0.58398 0.351704,0.0891 0.702067,0.18431 1.054688,0.26953 0.519545,0.1259 1.039837,0.24763 1.560547,0.36524 0.82638,0.18556 1.65554,0.35533 2.486328,0.51953 0.649693,0.12895 1.300197,0.24945 1.951172,0.36523 0.737462,0.1304 1.476483,0.25361 2.216796,0.36719 0.577793,0.0877 1.155859,0.17669 1.734375,0.25391 0.503567,0.0681 1.009021,0.12325 1.513672,0.18359 29.498929,3.47092 59.686439,-6.56515 81.298829,-28.38867 0.0455,-0.0462 0.0913,-0.0924 0.13672,-0.13867 0.72152,-0.73147 1.43281,-1.47469 2.13476,-2.23242 0.0162,-0.0176 0.0326,-0.0351 0.0488,-0.0527 0.23595,-0.25626 0.46594,-0.5185 0.69922,-0.77734 0.31864,-0.35186 0.63485,-0.70711 0.94922,-1.06446 0.45463,-0.5194 0.90567,-1.04101 1.34961,-1.57031 0.48699,-0.58064 0.9675,-1.16741 1.4414,-1.75976 -0.063,-0.0438 -0.11934,-0.0959 -0.18164,-0.14063 z"
       id="path2321"
       transform="scale(0.26458333)"
       inkscape:connector-curvature="0" />
    <path
       inkscape:connector-curvature="0"
       style="fill:none;fill-opacity:0.50196078;stroke:#000000;stroke-width:0.1;stroke-miterlimit:4;stroke-dasharray:none;stroke-dashoffset:0;stroke-opacity:1"
       d="m 21.92288,165.70241 a 30.000001,30.000001 0 0 0 -30.000237,30.00024 30.000001,30.000001 0 0 0 12.231296,24.12927 c 0.516832,1.00096 1.117595,1.9622 1.80299,2.87063 h 0.965832 v 2.99981 h 6.999573 v -1.11879 -1.88102 h 2.000396 v 2.39158 0.60823 h 11.999784 v -0.63872 -2.36109 h 1.999879 v 1.91254 1.08727 h 7.00009 v -2.99981 h 0.962215 c 0.685266,-0.90769 1.286055,-1.86839 1.80299,-2.86856 A 30.000001,30.000001 0 0 0 51.922595,195.70265 30.000001,30.000001 0 0 0 21.92288,165.70241 Z"
       id="path1101" />
    <ellipse
       style="fill:none;fill-opacity:1;stroke:#000000;stroke-width:0.1;stroke-miterlimit:4;stroke-dasharray:none;stroke-opacity:1"
       id="ellipse17330"
       cx="21.922737"
       cy="169.70219"
       rx="1.4220001"
       ry="1.4224"
       inkscape:transform-center-x="0.00026220086"
       inkscape:transform-center-y="-25.999998" />
    <ellipse
       inkscape:transform-center-y="13.000226"
       inkscape:transform-center-x="22.516524"
       ry="1.4224"
       rx="1.4220001"
       cy="-104.86521"
       cx="-180.44484"
       id="ellipse1641"
       style="fill:none;fill-opacity:1;stroke:#000000;stroke-width:0.1;stroke-miterlimit:4;stroke-dasharray:none;stroke-opacity:1"
       transform="rotate(-120)" />
    <ellipse
       transform="rotate(120)"
       style="fill:none;fill-opacity:1;stroke:#000000;stroke-width:0.1;stroke-miterlimit:4;stroke-dasharray:none;stroke-opacity:1"
       id="ellipse1643"
       cx="158.5213"
       cy="-142.83696"
       rx="1.4220001"
       ry="1.4224"
       inkscape:transform-center-x="-22.516788"
       inkscape:transform-center-y="12.999766" />
    <circle
       style="fill:none;fill-opacity:1;stroke:#000000;stroke-width:0.1;stroke-linejoin:round;stroke-miterlimit:4;stroke-dasharray:none;stroke-opacity:1"
       id="path11478"
       cx="21.922997"
       cy="195.70219"
       r="1.5" />
  </g>
</svg>
