<?xml version="1.0" encoding="UTF-8" standalone="no"?>
<!-- Created with Inkscape (http://www.inkscape.org/) -->

<svg
   xmlns:dc="http://purl.org/dc/elements/1.1/"
   xmlns:cc="http://creativecommons.org/ns#"
   xmlns:rdf="http://www.w3.org/1999/02/22-rdf-syntax-ns#"
   xmlns:svg="http://www.w3.org/2000/svg"
   xmlns="http://www.w3.org/2000/svg"
   xmlns:sodipodi="http://sodipodi.sourceforge.net/DTD/sodipodi-0.dtd"
   xmlns:inkscape="http://www.inkscape.org/namespaces/inkscape"
   width="60.099953mm"
   height="60.099949mm"
   viewBox="0 0 60.099953 60.099949"
   version="1.1"
   id="svg1471"
   inkscape:version="0.92.3 (2405546, 2018-03-11)"
   sodipodi:docname="stator buffer.svg">
  <defs
     id="defs1465" />
  <sodipodi:namedview
     id="base"
     pagecolor="#ffffff"
     bordercolor="#666666"
     borderopacity="1.0"
     inkscape:pageopacity="0.0"
     inkscape:pageshadow="2"
     inkscape:zoom="2.8"
     inkscape:cx="156.81226"
     inkscape:cy="118.20205"
     inkscape:document-units="mm"
     inkscape:current-layer="layer1"
     showgrid="false"
     inkscape:window-width="1680"
     inkscape:window-height="987"
     inkscape:window-x="-8"
     inkscape:window-y="-8"
     inkscape:window-maximized="1"
     inkscape:measure-start="113.575,206.467"
     inkscape:measure-end="113.705,203.041"
     inkscape:snap-bbox="true"
     inkscape:snap-bbox-edge-midpoints="false"
     inkscape:bbox-nodes="false"
     inkscape:snap-smooth-nodes="true"
     inkscape:snap-bbox-midpoints="true"
     inkscape:snap-object-midpoints="true"
     fit-margin-top="0"
     fit-margin-left="0"
     fit-margin-right="0"
     fit-margin-bottom="0"
     inkscape:snap-center="true"
     showguides="false" />
  <metadata
     id="metadata1468">
    <rdf:RDF>
      <cc:Work
         rdf:about="">
        <dc:format>image/svg+xml</dc:format>
        <dc:type
           rdf:resource="http://purl.org/dc/dcmitype/StillImage" />
        <dc:title></dc:title>
      </cc:Work>
    </rdf:RDF>
  </metadata>
  <g
     inkscape:label="Layer 1"
     inkscape:groupmode="layer"
     id="layer1"
     transform="translate(-44.789307,-214.78931)">
    <path
       style="fill:none;fill-opacity:0.50196078;stroke:#000000;stroke-width:0.37795275;stroke-miterlimit:4;stroke-dasharray:none;stroke-dashoffset:0;stroke-opacity:1"
       d="M 98.521484 16.537109 A 98.267715 98.267715 0 0 0 15.308594 113.57422 A 98.267715 98.267715 0 0 0 22.044922 149.04492 A 15.11811 15.11811 0 0 1 29.804688 147.65625 L 42.160156 169.08594 A 15.11811 15.11811 0 0 1 37.080078 175.12109 A 98.267715 98.267715 0 0 0 113.57617 211.8418 A 98.267715 98.267715 0 0 0 190.12109 175.14844 A 15.11811 15.11811 0 0 1 184.97656 169.08008 L 197.35938 147.66602 A 15.11811 15.11811 0 0 1 205.19922 149.08398 A 98.267715 98.267715 0 0 0 211.84375 113.57422 A 98.267715 98.267715 0 0 0 128.62305 16.587891 A 15.11811 15.11811 0 0 1 125.94531 23.984375 L 101.20898 23.970703 A 15.11811 15.11811 0 0 1 98.521484 16.537109 z "
       transform="matrix(0.26458333,0,0,0.26458333,44.789307,214.78931)"
       id="path2220" />
    <path
       inkscape:connector-curvature="0"
       style="fill:none;fill-opacity:0.50196078;stroke:#000000;stroke-width:0.1;stroke-miterlimit:4;stroke-dasharray:none;stroke-dashoffset:0;stroke-opacity:1"
       d="m 74.839544,214.83931 a 30.000001,30.000001 0 0 0 -30.000237,30.00024 30.000001,30.000001 0 0 0 12.231296,24.12927 c 0.516832,1.00096 1.117595,1.9622 1.80299,2.87063 h 0.965832 v 2.99981 h 6.999573 v -1.11879 -1.88102 h 2.000396 v 2.39158 0.60823 h 11.999784 v -0.63872 -2.36109 h 1.999879 v 1.91254 1.08727 h 7.00009 v -2.99981 h 0.962215 c 0.685266,-0.90769 1.286055,-1.86839 1.80299,-2.86856 A 30.000001,30.000001 0 0 0 104.83926,244.83955 30.000001,30.000001 0 0 0 74.839544,214.83931 Z"
       id="path1101" />
    <ellipse
       style="fill:none;fill-opacity:1;stroke:#000000;stroke-width:0.1;stroke-miterlimit:4;stroke-dasharray:none;stroke-opacity:1"
       id="ellipse17330"
       cx="74.839401"
       cy="218.8391"
       rx="1.4220001"
       ry="1.4224"
       inkscape:transform-center-x="0.00026220086"
       inkscape:transform-center-y="-25.999998" />
    <ellipse
       inkscape:transform-center-y="13.000226"
       inkscape:transform-center-x="22.516524"
       ry="1.4224"
       rx="1.4220001"
       cy="-83.606491"
       cx="-249.45697"
       id="ellipse1641"
       style="fill:none;fill-opacity:1;stroke:#000000;stroke-width:0.1;stroke-miterlimit:4;stroke-dasharray:none;stroke-opacity:1"
       transform="rotate(-120)" />
    <ellipse
       transform="rotate(120)"
       style="fill:none;fill-opacity:1;stroke:#000000;stroke-width:0.1;stroke-miterlimit:4;stroke-dasharray:none;stroke-opacity:1"
       id="ellipse1643"
       cx="174.61678"
       cy="-213.23259"
       rx="1.4220001"
       ry="1.4224"
       inkscape:transform-center-x="-22.516788"
       inkscape:transform-center-y="12.999766" />
  </g>
</svg>
